<?xml version="1.0" encoding="UTF-8"?>
<!-- Created by Svg.la -->
<svg version="1.1" xmlns="http://www.w3.org/2000/svg" width="800" height="800">
<path d="M0 0 C264 0 528 0 800 0 C800 264 800 528 800 800 C536 800 272 800 0 800 C0 536 0 272 0 0 Z " fill="#0B1E33" transform="translate(0,0)"/>
<path d="M0 0 C1.301 -0.028 2.601 -0.057 3.941 -0.086 C8.053 0.456 8.923 1.179 11.438 4.375 C11.937 6.862 11.937 6.862 11.944 9.7 C11.961 10.775 11.977 11.85 11.995 12.958 C11.998 14.13 12.001 15.301 12.004 16.508 C12.053 19.058 12.109 21.608 12.172 24.157 C12.189 24.824 12.205 25.491 12.221 26.178 C12.433 33.829 13.083 41.435 13.777 49.055 C13.841 49.757 13.905 50.46 13.97 51.184 C14.361 55.482 14.764 59.78 15.171 64.077 C15.446 67.004 15.712 69.932 15.978 72.86 C16.24 75.738 16.506 78.615 16.774 81.493 C16.958 83.477 17.14 85.46 17.322 87.444 C18.019 94.789 18.912 102.074 20.019 109.369 C20.567 113.302 20.773 117.091 20.812 121.062 C20.849 122.075 20.849 122.075 20.887 123.107 C20.905 126.136 20.806 127.93 18.844 130.301 C13.279 132.785 6.049 132.423 0.258 130.742 C-1.737 129.482 -2.429 128.458 -3.562 126.375 C-5.66 116.722 -6.187 106.597 -6.995 96.762 C-7.187 94.443 -7.39 92.125 -7.594 89.807 C-8.402 80.301 -8.737 70.916 -8.562 61.375 C-9.222 61.375 -9.882 61.375 -10.562 61.375 C-10.671 62.194 -10.78 63.013 -10.892 63.856 C-11.674 67.958 -12.921 71.74 -14.293 75.676 C-14.566 76.47 -14.839 77.265 -15.12 78.084 C-15.992 80.62 -16.871 83.154 -17.75 85.688 C-18.321 87.347 -18.892 89.006 -19.463 90.666 C-20.872 94.76 -22.294 98.849 -23.718 102.937 C-24.574 105.408 -25.416 107.884 -26.256 110.361 C-26.792 111.922 -27.327 113.482 -27.863 115.043 C-28.228 116.133 -28.228 116.133 -28.6 117.244 C-30.336 122.262 -30.336 122.262 -32.562 123.375 C-34.371 123.522 -36.186 123.596 -38 123.625 C-38.968 123.651 -39.936 123.677 -40.934 123.703 C-43.562 123.375 -43.562 123.375 -45.273 122.301 C-47.145 119.504 -47.914 116.531 -48.75 113.312 C-48.951 112.564 -49.153 111.815 -49.36 111.044 C-51.669 102.278 -53.73 93.447 -55.812 84.625 C-55.991 83.869 -56.169 83.113 -56.353 82.334 C-56.869 80.145 -57.38 77.956 -57.891 75.766 C-58.189 74.487 -58.487 73.209 -58.794 71.892 C-59.485 68.728 -60.064 65.574 -60.562 62.375 C-62.178 72.358 -63.581 82.36 -64.805 92.398 C-64.913 93.285 -65.022 94.171 -65.133 95.084 C-65.684 99.6 -66.227 104.117 -66.76 108.635 C-66.966 110.337 -67.173 112.04 -67.379 113.742 C-67.513 114.913 -67.513 114.913 -67.65 116.108 C-68.178 120.406 -68.913 124.332 -70.562 128.375 C-74.208 131.107 -78.385 130.913 -82.785 130.801 C-86.569 130.221 -88.786 129.119 -91.449 126.379 C-93.775 122.193 -92.388 117.878 -91.562 113.375 C-91.261 110.918 -90.97 108.459 -90.688 106 C-89.124 93.568 -87.305 81.169 -85.398 68.785 C-85.082 66.726 -84.765 64.667 -84.449 62.607 C-84.233 61.203 -84.017 59.799 -83.801 58.395 C-82.582 50.466 -81.426 42.534 -80.422 34.574 C-80.332 33.865 -80.243 33.155 -80.15 32.424 C-79.725 29.033 -79.31 25.642 -78.906 22.249 C-78.758 21.039 -78.61 19.829 -78.457 18.582 C-78.332 17.525 -78.206 16.467 -78.077 15.378 C-76.71 7.401 -76.71 7.401 -73.969 4.949 C-68.904 2.593 -63.2 0.409 -57.562 1.375 C-52.678 5.062 -51.418 8.817 -50.062 14.5 C-49.859 15.288 -49.656 16.075 -49.447 16.887 C-49.02 18.547 -48.601 20.209 -48.188 21.873 C-47.387 25.079 -46.537 28.271 -45.686 31.464 C-45.061 33.819 -44.445 36.177 -43.832 38.535 C-42.954 41.903 -42.052 45.263 -41.137 48.621 C-40.789 49.909 -40.789 49.909 -40.434 51.223 C-39.989 52.865 -39.54 54.507 -39.086 56.146 C-38.055 59.982 -37.283 63.362 -37.562 67.375 C-36.903 67.375 -36.243 67.375 -35.562 67.375 C-34.771 65.037 -34.771 65.037 -34.182 62.094 C-32.722 55.856 -30.808 49.908 -28.656 43.879 C-28.29 42.842 -27.924 41.806 -27.547 40.738 C-26.78 38.57 -26.01 36.403 -25.238 34.237 C-24.058 30.924 -22.89 27.608 -21.723 24.291 C-20.972 22.174 -20.221 20.058 -19.469 17.941 C-19.122 16.955 -18.775 15.968 -18.417 14.952 C-14.264 3.365 -14.264 3.365 -10.348 1.086 C-6.838 0.19 -3.622 0.036 0 0 Z " fill="#F9F9FA" transform="translate(313.5625,468.625)"/>
<path d="M0 0 C13.113 7.139 19.701 18.989 23.993 32.969 C29.597 52.556 29.29 74.309 24.395 94.02 C24.116 95.162 23.838 96.304 23.551 97.48 C19.845 110.929 13.338 124.018 1.207 131.52 C-4.761 134.495 -10.043 135.311 -16.605 134.02 C-27.518 129.803 -34.557 120.662 -39.228 110.266 C-49.397 85.669 -49.303 52.433 -39.696 27.677 C-36.279 19.564 -32.106 12.076 -25.605 6.02 C-25.08 5.521 -24.554 5.022 -24.012 4.508 C-17.313 -1.456 -8.506 -3.201 0 0 Z " fill="#F9F9F9" transform="translate(387.60546875,467.98046875)"/>
<path d="M0 0 C1.938 1.938 1.938 1.938 2.25 5.625 C2.147 6.718 2.044 7.811 1.938 8.938 C2.509 8.926 3.08 8.914 3.668 8.902 C6.426 8.872 9.18 8.906 11.938 8.938 C13.054 8.918 14.17 8.899 15.32 8.879 C23.781 9.023 23.781 9.023 26.875 11.469 C30.273 16.334 30.539 21.168 29.938 26.938 C30.541 26.891 31.144 26.845 31.766 26.797 C32.565 26.761 33.364 26.725 34.188 26.688 C34.976 26.641 35.765 26.595 36.578 26.547 C39.954 27.106 40.81 28.246 42.938 30.938 C44.087 33.916 44.795 36.971 45.516 40.078 C45.732 40.96 45.948 41.842 46.171 42.751 C46.857 45.56 47.522 48.374 48.188 51.188 C48.65 53.097 49.113 55.006 49.578 56.914 C50.713 61.585 51.83 66.26 52.938 70.938 C54.858 68.057 55.717 65.869 56.742 62.598 C57.079 61.534 57.415 60.469 57.762 59.373 C58.282 57.703 58.282 57.703 58.812 56 C60.182 51.644 61.557 47.29 62.938 42.938 C63.294 41.808 63.65 40.679 64.017 39.515 C64.364 38.436 64.712 37.358 65.07 36.246 C65.537 34.787 65.537 34.787 66.012 33.299 C66.938 30.938 66.938 30.938 68.938 28.938 C73.453 28.161 77.57 28.293 81.438 30.875 C83.937 32.937 83.937 32.937 84.938 33.938 C84.491 39.731 82.719 44.676 80.625 50.062 C78.192 56.492 75.922 62.91 73.965 69.504 C72.924 72.981 71.831 76.438 70.728 79.896 C67.334 90.537 64.034 101.179 61.5 112.062 C58.01 126.041 51.819 138.764 39.328 146.676 C35.822 148.526 33.931 149.329 29.938 148.938 C26.479 146.117 24.13 142.629 23.625 138.188 C24.029 133.989 25.25 132.177 27.938 128.938 C29.043 128.159 30.17 127.41 31.312 126.688 C36.052 123.514 38.634 119.074 40.938 113.938 C42.041 108.091 39.81 102.855 38.008 97.316 C37.048 94.287 36.239 91.277 35.5 88.188 C34.331 83.367 32.985 78.625 31.562 73.875 C29.427 66.742 27.484 59.57 25.637 52.357 C25.444 51.606 25.25 50.856 25.051 50.082 C24.866 49.365 24.681 48.648 24.491 47.909 C23.911 45.734 23.911 45.734 22.793 42.887 C21.938 39.938 21.938 39.938 21.938 31.938 C15.008 31.938 8.077 31.938 0.938 31.938 C0.958 34.547 0.979 37.156 1.001 39.844 C1.067 48.466 1.111 57.087 1.145 65.709 C1.166 70.936 1.194 76.163 1.239 81.39 C1.283 86.434 1.307 91.479 1.317 96.523 C1.324 98.448 1.339 100.372 1.36 102.297 C1.389 104.993 1.393 107.688 1.392 110.384 C1.413 111.577 1.413 111.577 1.435 112.794 C1.408 116.511 1.063 118.731 -0.886 121.933 C-3.92 124.728 -5.931 124.574 -10 124.5 C-11.205 124.501 -12.411 124.503 -13.652 124.504 C-17.773 123.82 -19.328 123.102 -22.062 119.938 C-24.281 112.402 -24.339 105.197 -24.293 97.383 C-24.293 96.087 -24.292 94.79 -24.292 93.455 C-24.29 90.717 -24.282 87.979 -24.268 85.24 C-24.251 81.79 -24.248 78.34 -24.248 74.89 C-24.247 60.212 -24.077 45.584 -23.062 30.938 C-23.653 30.953 -24.243 30.969 -24.851 30.985 C-27.525 31.047 -30.2 31.086 -32.875 31.125 C-34.268 31.163 -34.268 31.163 -35.689 31.201 C-37.028 31.216 -37.028 31.216 -38.395 31.23 C-39.217 31.246 -40.039 31.262 -40.886 31.278 C-43.568 30.858 -44.405 30.04 -46.062 27.938 C-48.194 22.705 -47.554 16.748 -45.688 11.562 C-44.062 7.938 -44.062 7.938 -42.062 5.938 C-34.764 5.256 -27.315 6.039 -20.062 6.938 C-20.124 6.154 -20.186 5.37 -20.25 4.562 C-20.157 3.263 -20.157 3.263 -20.062 1.938 C-14.252 -1.936 -6.55 -2.273 0 0 Z " fill="#F8F9F9" transform="translate(508.0625,475.0625)"/>
<path d="M0 0 C2.66 0.297 2.66 0.297 4.477 1.781 C10.682 9.833 15.722 18.519 20.868 27.27 C24.209 32.912 27.626 38.508 31.035 44.109 C32.129 45.908 33.223 47.707 34.317 49.506 C35.042 50.698 35.767 51.889 36.492 53.081 C38.838 56.94 41.175 60.804 43.508 64.672 C44.704 66.651 45.901 68.63 47.098 70.609 C47.944 72.013 47.944 72.013 48.808 73.446 C51.379 77.678 53.995 81.847 56.82 85.914 C57.303 86.61 57.785 87.305 58.281 88.022 C59.17 89.287 60.074 90.542 60.994 91.784 C62.16 93.434 62.16 93.434 63.66 96.297 C62.786 99.306 61.144 101.386 58.66 103.297 C57.34 103.297 56.02 103.297 54.66 103.297 C52.975 101.095 52.975 101.095 51.297 97.973 C50.834 97.126 50.834 97.126 50.362 96.261 C49.342 94.385 48.345 92.498 47.348 90.609 C46.638 89.292 45.928 87.976 45.216 86.66 C39.697 76.414 34.352 66.073 29.042 55.718 C24.286 46.45 19.356 37.288 14.324 28.168 C12.587 25.015 10.894 21.845 9.246 18.645 C8.879 17.936 8.512 17.228 8.135 16.498 C7.467 15.201 6.807 13.901 6.156 12.596 C4.339 8.959 4.339 8.959 0.66 7.297 C-1.476 23.868 -2.426 40.216 -2.465 56.922 C-2.472 58.851 -2.472 58.851 -2.479 60.819 C-2.459 72.845 -1.754 84.792 -0.34 96.734 C-0.257 97.458 -0.175 98.182 -0.09 98.928 C0.305 102.364 0.729 105.789 1.207 109.215 C1.789 113.864 1.881 118.491 1.91 123.172 C1.941 124.452 1.941 124.452 1.973 125.758 C1.98 126.98 1.98 126.98 1.988 128.227 C1.998 128.961 2.007 129.696 2.017 130.453 C1.899 131.061 1.781 131.67 1.66 132.297 C0.67 132.957 -0.32 133.617 -1.34 134.297 C-4.955 128.88 -7.73 123.458 -10.152 117.422 C-10.84 115.755 -11.529 114.088 -12.219 112.422 C-12.741 111.155 -12.741 111.155 -13.274 109.863 C-15.004 105.698 -16.784 101.555 -18.59 97.422 C-18.907 96.68 -19.224 95.937 -19.55 95.172 C-21.354 91.066 -23.214 87.594 -26.34 84.297 C-29.119 83.292 -29.119 83.292 -32.34 84.297 C-37.704 87.422 -41.552 91.398 -45.215 96.359 C-49.398 101.875 -54.203 104.352 -60.34 107.297 C-61.192 107.865 -62.044 108.434 -62.922 109.02 C-65.34 110.297 -65.34 110.297 -67.363 110.238 C-70.017 108.974 -71.835 107.254 -73.965 105.234 C-76.712 102.234 -76.712 102.234 -80.34 101.297 C-80.377 102.42 -80.415 103.542 -80.453 104.699 C-80.777 112.697 -81.119 119.882 -84.34 127.297 C-84.856 128.547 -85.37 129.799 -85.883 131.051 C-86.772 133.221 -87.665 135.388 -88.572 137.551 C-90.145 141.312 -91.648 145.08 -93.023 148.918 C-93.42 150.021 -93.42 150.021 -93.825 151.146 C-94.326 152.555 -94.817 153.967 -95.298 155.383 C-95.894 157.054 -96.608 158.681 -97.34 160.297 C-98.33 160.627 -99.32 160.957 -100.34 161.297 C-100.34 156.677 -100.34 152.057 -100.34 147.297 C-101.33 147.297 -102.32 147.297 -103.34 147.297 C-103.795 149.327 -104.237 151.36 -104.633 153.402 C-106.85 162.478 -110.876 170.44 -116.957 177.492 C-119.384 180.349 -121.632 183.294 -123.881 186.292 C-128.868 192.934 -133.996 199.428 -139.402 205.734 C-139.938 206.367 -140.474 206.999 -141.026 207.651 C-145.64 212.957 -145.64 212.957 -149.34 214.297 C-150.175 211.458 -150.617 209.91 -149.375 207.163 C-148.865 206.46 -148.356 205.756 -147.832 205.031 C-147.264 204.232 -146.696 203.433 -146.11 202.609 C-145.485 201.764 -144.859 200.918 -144.215 200.047 C-143.58 199.165 -142.945 198.283 -142.29 197.375 C-135.362 187.814 -128.213 178.398 -120.844 169.172 C-114.917 161.612 -110.523 153.574 -106.25 145.008 C-105.34 143.297 -105.34 143.297 -103.34 140.297 C-105.643 139.484 -105.643 139.484 -108.34 139.297 C-110.444 140.634 -110.444 140.634 -112.215 142.734 C-112.911 143.483 -113.607 144.232 -114.324 145.004 C-116.623 147.619 -118.894 150.256 -121.16 152.898 C-124.11 156.144 -127.223 159.212 -130.34 162.297 C-134.593 166.506 -138.704 170.737 -142.57 175.309 C-145.335 178.415 -148.321 181.299 -151.281 184.218 C-154.633 187.543 -157.77 190.993 -160.848 194.57 C-162.919 196.967 -164.97 199.19 -167.34 201.297 C-168.33 201.297 -169.32 201.297 -170.34 201.297 C-169.945 195.775 -167.64 192.538 -164.277 188.359 C-159.094 181.693 -154.194 174.875 -149.402 167.922 C-142.511 157.95 -135.473 148.097 -128.34 138.297 C-116.882 122.544 -105.7 106.781 -95.578 90.126 C-95.055 89.267 -94.531 88.408 -93.992 87.523 C-93.528 86.756 -93.064 85.988 -92.586 85.198 C-91.34 83.297 -91.34 83.297 -89.34 81.297 C-86.579 81.254 -84.931 81.78 -82.842 83.606 C-81.224 85.315 -79.679 87.068 -78.152 88.859 C-76.253 91.053 -74.33 93.183 -72.34 95.297 C-71.68 95.297 -71.02 95.297 -70.34 95.297 C-68.668 93.081 -67.12 90.859 -65.59 88.547 C-64.593 87.07 -63.596 85.593 -62.598 84.117 C-62.068 83.331 -61.539 82.545 -60.993 81.735 C-58.191 77.602 -55.33 73.511 -52.465 69.422 C-51.579 68.157 -51.579 68.157 -50.675 66.866 C-42.881 55.766 -34.93 44.783 -26.854 33.886 C-26.251 33.073 -25.648 32.26 -25.027 31.422 C-24.436 30.623 -23.844 29.825 -23.234 29.002 C-19.347 23.732 -15.669 18.378 -12.09 12.895 C-3.721 0.472 -3.721 0.472 0 0 Z " fill="#F9F9FA" transform="translate(405.33984375,198.703125)"/>
<path d="M0 0 C8.353 8.353 12.871 18.028 13.188 29.75 C12.861 42.412 8.27 52.378 -0.438 61.562 C-8.169 68.881 -16.859 73.317 -27.188 75.812 C-28.254 76.124 -29.32 76.436 -30.418 76.758 C-34.477 77.446 -36.393 77.508 -40.188 75.812 C-44.818 70.576 -47.967 64.21 -51.065 57.989 C-52.237 55.618 -52.237 55.618 -54.188 52.812 C-57.422 51.64 -57.422 51.64 -61.188 52.812 C-64.28 56.212 -66.755 59.921 -69.188 63.812 C-76.09 58.704 -81.755 51.538 -83.188 42.812 C-83.953 27.361 -81.438 16.279 -71.461 4.207 C-67.808 0.359 -63.719 -2.464 -59.188 -5.188 C-58.507 -5.599 -57.826 -6.01 -57.125 -6.434 C-38.219 -16.839 -16.645 -11.423 0 0 Z " fill="#FDB40E" transform="translate(548.1875,215.1875)"/>
<path d="M0 0 C2.465 0.102 2.465 0.102 5 1 C6.441 2.898 6.441 2.898 7.562 5.375 C7.97 6.272 8.377 7.169 8.797 8.094 C14 20.662 14 20.662 14 26 C12.68 26 11.36 26 10 26 C8.901 23.307 8.097 20.858 7.375 18.062 C6.642 15.346 5.856 12.683 5 10 C4.01 9.505 4.01 9.505 3 9 C2.238 10.342 2.238 10.342 1.461 11.711 C0.766 12.932 0.07 14.154 -0.625 15.375 C-0.956 15.959 -1.288 16.543 -1.629 17.145 C-3.199 19.899 -4.775 22.638 -6.45 25.33 C-10.137 31.275 -13.013 37.267 -15.625 43.75 C-16.253 45.271 -16.253 45.271 -16.895 46.823 C-19.339 52.776 -21.681 58.761 -23.961 64.777 C-28.948 77.861 -33.556 89.435 -43 100 C-44.936 102.52 -46.784 105.098 -48.625 107.688 C-49.063 108.289 -49.502 108.891 -49.954 109.512 C-52.268 112.46 -52.268 112.46 -53 116 C-48.157 114.601 -43.369 113.192 -38.688 111.312 C-35.436 110.155 -33.385 109.683 -30 110 C-29.648 115.395 -30.923 119.633 -32.562 124.688 C-35.618 134.42 -38.185 144.249 -40.639 154.149 C-41.057 155.81 -41.057 155.81 -41.484 157.504 C-41.729 158.492 -41.974 159.48 -42.226 160.498 C-43 163 -43 163 -45 166 C-48.207 164.617 -50.038 163.096 -52.242 160.402 C-52.834 159.682 -53.426 158.962 -54.035 158.221 C-54.642 157.467 -55.249 156.714 -55.875 155.938 C-56.774 154.848 -56.774 154.848 -57.691 153.736 C-64.82 144.991 -70.508 135.578 -76.125 125.812 C-80.552 118.002 -80.552 118.002 -85.387 110.445 C-87 108 -87 108 -87.688 105.062 C-86.626 100.336 -83.575 98.097 -80 95 C-79.386 94.456 -78.773 93.912 -78.141 93.352 C-76.844 92.211 -75.542 91.077 -74.234 89.949 C-71.621 87.67 -69.061 85.338 -66.5 83 C-54.753 72.302 -54.753 72.302 -50.344 69.027 C-42.796 63.315 -38.425 57.274 -34 49 C-33.204 47.515 -33.204 47.515 -32.392 46.001 C-31.803 44.9 -31.213 43.799 -30.605 42.664 C-29.992 41.52 -29.379 40.376 -28.747 39.197 C-27.522 36.899 -26.305 34.597 -25.098 32.289 C-20.28 23.167 -14.808 15.609 -7.75 8.125 C-7.221 7.558 -6.693 6.991 -6.148 6.406 C-4.127 4.241 -2.095 2.095 0 0 Z " fill="#F8F9F9" transform="translate(374,285)"/>
<path d="M0 0 C1.56 -0.039 1.56 -0.039 3.152 -0.078 C6.514 0.301 7.668 0.901 10.062 3.25 C10.532 5.66 10.532 5.66 10.488 8.527 C10.48 9.6 10.472 10.674 10.463 11.779 C10.419 13.466 10.419 13.466 10.375 15.188 C10.365 16.246 10.356 17.305 10.346 18.396 C10.277 23.444 10.117 28.481 9.822 33.52 C9.002 47.58 8.91 61.61 8.932 75.692 C8.937 79.06 8.934 82.429 8.929 85.798 C8.924 89.051 8.927 92.305 8.93 95.559 C8.928 96.761 8.926 97.963 8.924 99.201 C8.927 100.317 8.93 101.434 8.933 102.584 C8.934 103.56 8.935 104.537 8.936 105.543 C9.061 108.215 9.505 110.639 10.062 113.25 C10.228 115.768 10.327 118.29 10.375 120.812 C10.412 122.113 10.45 123.414 10.488 124.754 C10.062 128.25 10.062 128.25 8.539 130.676 C5.129 132.843 2.044 132.911 -1.875 132.875 C-2.578 132.907 -3.281 132.939 -4.006 132.973 C-7.776 132.98 -9.813 132.339 -12.879 130.148 C-15.263 126.782 -15.329 123.541 -15.556 119.492 C-15.593 118.832 -15.63 118.172 -15.669 117.493 C-16.05 110.16 -16.102 102.825 -16.105 95.484 C-16.109 93.998 -16.112 92.511 -16.116 91.025 C-16.121 87.919 -16.123 84.813 -16.123 81.707 C-16.123 78.605 -16.13 75.503 -16.143 72.401 C-16.215 55.94 -16.102 39.485 -15.343 23.039 C-15.274 21.495 -15.212 19.951 -15.159 18.406 C-15.082 16.27 -14.974 14.139 -14.857 12.005 C-14.8 10.793 -14.744 9.582 -14.686 8.334 C-13.732 4.405 -12.316 3.357 -8.938 1.25 C-5.761 0.191 -3.338 0.05 0 0 Z " fill="#F9FAFA" transform="translate(441.9375,466.75)"/>
<path d="M0 0 C2.864 0.245 4.505 0.52 6.598 2.547 C11.042 9.231 15.017 16.151 18.963 23.14 C22.877 30.07 26.895 36.931 30.969 43.769 C41.741 61.852 52.125 80.143 62.375 98.527 C64.562 102.444 66.765 106.351 68.993 110.244 C69.987 111.981 70.976 113.719 71.965 115.458 C73.215 117.653 74.471 119.844 75.734 122.03 C76.294 123.017 76.853 124.003 77.43 125.02 C77.927 125.887 78.425 126.754 78.937 127.648 C80 130 80 130 80 134 C77.217 133.668 76.147 133.157 74.203 131.086 C73.559 130.191 72.914 129.297 72.25 128.375 C71.874 127.856 71.497 127.336 71.109 126.801 C69.725 124.877 68.362 122.939 67 121 C66.443 120.213 65.885 119.425 65.311 118.614 C57.163 107.086 49.218 95.424 41.375 83.688 C40.998 83.124 40.62 82.561 40.231 81.98 C32.979 71.141 26.616 60.722 21.688 48.625 C20.735 46.329 19.781 44.033 18.824 41.738 C18.117 40.04 18.117 40.04 17.396 38.307 C14.677 31.865 11.772 25.508 8.875 19.145 C7.194 15.452 5.583 11.735 4 8 C4.733 29.15 9.854 50.007 14.588 70.553 C14.771 71.352 14.953 72.15 15.141 72.973 C15.385 74.029 15.385 74.029 15.634 75.106 C16.083 77.429 16.152 79.641 16 82 C12.521 80.84 12.353 80.368 10.695 77.281 C10.067 76.129 10.067 76.129 9.426 74.953 C8.997 74.144 8.567 73.334 8.125 72.5 C7.703 71.721 7.282 70.943 6.848 70.141 C6.426 69.362 6.005 68.583 5.57 67.781 C5.147 67 4.723 66.218 4.286 65.413 C3.404 63.757 2.545 62.089 1.706 60.412 C1.285 59.593 0.864 58.774 0.43 57.93 C0.058 57.184 -0.313 56.439 -0.696 55.671 C-1.867 53.809 -1.867 53.809 -4.006 53.535 C-9.924 53.801 -15.613 56.651 -20.984 58.941 C-23.929 59.975 -25.916 60.349 -29 60 C-32.103 57.016 -33.571 53.002 -35 49 C-34.728 44.837 -32.146 42.842 -29.25 40.062 C-28.389 39.228 -27.528 38.394 -26.641 37.535 C-24.919 35.882 -23.185 34.242 -21.438 32.617 C-18.697 29.675 -16.726 26.534 -14.75 23.062 C-13.976 21.737 -13.2 20.413 -12.422 19.09 C-12.027 18.417 -11.632 17.744 -11.225 17.05 C-9.221 13.696 -7.118 10.408 -5 7.125 C-4.614 6.524 -4.228 5.924 -3.831 5.305 C-1.135 1.135 -1.135 1.135 0 0 Z " fill="#F6F6F7" transform="translate(488,270)"/>
<path d="M0 0 C4.404 4.51 6.761 9.296 9.188 15.062 C9.53 15.852 9.872 16.642 10.225 17.455 C11.164 19.631 12.084 21.814 13 24 C13.409 24.947 13.817 25.895 14.238 26.871 C15 29 15 29 15 32 C14.01 32 13.02 32 12 32 C12 31.34 12 30.68 12 30 C10.02 30 8.04 30 6 30 C6.99 29.67 7.98 29.34 9 29 C7.426 23.006 5.431 17.188 3.125 11.438 C2.653 10.24 2.181 9.042 1.695 7.809 C0.264 4.849 0.264 4.849 -2.43 3.863 C-6.896 4.101 -8.719 7.175 -11.617 10.312 C-12.404 11.199 -13.19 12.086 -14 13 C-14.724 13.763 -15.449 14.526 -16.195 15.312 C-22.727 22.616 -26.813 30.918 -31.219 39.602 C-33.798 44.667 -36.553 49.603 -39.438 54.5 C-40.039 55.531 -40.039 55.531 -40.652 56.583 C-44.044 62.299 -47.587 66.885 -52.875 71 C-57.496 74.699 -61.871 78.576 -66.188 82.625 C-70.438 86.612 -74.702 90.558 -79.113 94.367 C-82.777 97.538 -86.383 100.776 -90 104 C-90.33 103.01 -90.66 102.02 -91 101 C-92.98 101.495 -92.98 101.495 -95 102 C-95 98.096 -93.69 96.992 -91.312 93.938 C-84.992 85.436 -81.4 76.75 -78.211 66.711 C-77.811 65.816 -77.412 64.922 -77 64 C-76.01 64 -75.02 64 -74 64 C-74 68.62 -74 73.24 -74 78 C-70.648 76.324 -70.114 72.488 -68.875 69.125 C-65.971 61.422 -62.866 53.831 -59.578 46.284 C-56.664 39.501 -55.812 33.517 -55.438 26.188 C-55.373 25.005 -55.373 25.005 -55.307 23.799 C-55.201 21.866 -55.1 19.933 -55 18 C-50.427 18 -50.105 18.424 -47 21.438 C-43.553 24.913 -43.553 24.913 -39 26 C-36.701 24.837 -34.69 23.67 -32.562 22.25 C-31.439 21.526 -30.315 20.802 -29.191 20.078 C-28.138 19.392 -27.085 18.707 -26 18 C-25.12 17.518 -24.239 17.036 -23.332 16.539 C-20.587 14.728 -19.064 12.772 -17.125 10.125 C-7.799 -1.865 -7.799 -1.865 0 0 Z " fill="#112438" transform="translate(379,282)"/>
<path d="M0 0 C5.837 3.293 7.973 7.978 9.859 14.129 C14.596 32.532 13.356 57.349 4.438 74.375 C2.5 77.062 2.5 77.062 0.438 78.375 C-2.062 78.438 -2.062 78.438 -4.562 77.375 C-13.218 68.225 -12.936 56.471 -12.933 44.621 C-12.937 42.341 -12.974 40.063 -13.012 37.783 C-13.105 25.692 -12.461 11.058 -4.07 1.551 C-2.562 0.375 -2.562 0.375 0 0 Z " fill="#0F2338" transform="translate(379.5625,494.625)"/>
<path d="M0 0 C4.305 0.716 5.681 3.615 8.199 6.977 C12.754 13.542 16.696 20.512 20.743 27.395 C24.084 33.037 27.501 38.633 30.91 44.234 C32.004 46.033 33.098 47.832 34.192 49.631 C34.917 50.823 35.642 52.014 36.367 53.206 C38.713 57.065 41.05 60.929 43.383 64.797 C44.579 66.776 45.776 68.755 46.973 70.734 C47.537 71.67 48.102 72.606 48.683 73.571 C51.254 77.803 53.87 81.972 56.695 86.039 C57.419 87.083 57.419 87.083 58.156 88.147 C59.045 89.412 59.949 90.667 60.869 91.909 C62.035 93.559 62.035 93.559 63.535 96.422 C62.661 99.431 61.019 101.511 58.535 103.422 C57.215 103.422 55.895 103.422 54.535 103.422 C52.85 101.22 52.85 101.22 51.172 98.098 C50.863 97.533 50.555 96.968 50.237 96.386 C49.217 94.51 48.22 92.623 47.223 90.734 C46.513 89.417 45.803 88.101 45.091 86.785 C39.572 76.539 34.227 66.198 28.917 55.843 C24.161 46.575 19.231 37.413 14.199 28.293 C12.462 25.14 10.769 21.97 9.121 18.77 C8.754 18.061 8.387 17.353 8.01 16.623 C7.342 15.326 6.682 14.026 6.031 12.721 C4.214 9.084 4.214 9.084 0.535 7.422 C-0.125 13.032 -0.785 18.642 -1.465 24.422 C-1.795 24.422 -2.125 24.422 -2.465 24.422 C-2.589 22.968 -2.589 22.968 -2.715 21.484 C-2.962 20.474 -3.21 19.463 -3.465 18.422 C-5.445 17.76 -5.445 17.76 -7.465 17.422 C-8.215 15.359 -8.215 15.359 -8.465 13.422 C-9.925 16.069 -10.465 17.316 -10.465 20.422 C-11.125 20.752 -11.785 21.082 -12.465 21.422 C-14.59 20.484 -14.59 20.484 -16.465 19.422 C-14.699 16.814 -12.926 14.211 -11.152 11.609 C-10.653 10.871 -10.153 10.133 -9.639 9.373 C-9.152 8.661 -8.665 7.949 -8.164 7.215 C-7.719 6.56 -7.274 5.906 -6.815 5.231 C-3.337 0.571 -3.337 0.571 0 0 Z " fill="#F1F2F3" transform="translate(405.46484375,198.578125)"/>
<path d="M0 0 C1.234 3.75 0.961 7.211 0.812 11.125 C0.65 21.483 3.992 29.375 11 37 C11.99 37.66 12.98 38.32 14 39 C14.494 38.29 14.987 37.579 15.496 36.848 C16.137 35.929 16.777 35.009 17.438 34.062 C18.076 33.146 18.714 32.229 19.371 31.285 C21.666 28.065 21.666 28.065 25.188 27.375 C29 28 29 28 30.516 29.551 C32.129 31.976 33.563 34.466 35 37 C35.712 38.144 36.429 39.285 37.152 40.422 C43 49.664 43 49.664 43 52 C47.29 52 51.58 52 56 52 C56 52.33 56 52.66 56 53 C42.76 54.364 42.76 54.364 38.914 51.383 C37.375 48.993 36.186 46.584 35 44 C33.845 41.981 32.657 39.981 31.438 38 C30.9 37.072 30.362 36.144 29.809 35.188 C28.169 32.837 28.169 32.837 25.596 32.091 C24.739 32.061 23.883 32.031 23 32 C21.095 33.753 21.095 33.753 19.66 36.363 C18.777 37.789 18.777 37.789 17.877 39.244 C17.278 40.257 16.679 41.269 16.062 42.312 C15.468 43.283 14.873 44.253 14.26 45.252 C11.935 49.055 9.64 52.871 7.442 56.749 C4.421 62.016 1.375 66.129 -3.25 70.062 C-3.779 70.534 -4.307 71.005 -4.852 71.49 C-6.823 73.229 -8.638 74.819 -11 76 C-11 75.34 -11 74.68 -11 74 C-11.99 73.67 -12.98 73.34 -14 73 C-12.067 70.975 -10.368 69.579 -8 68 C-8.66 67.67 -9.32 67.34 -10 67 C-10 64.667 -10 62.333 -10 60 C-10.95 57.85 -10.95 57.85 -12 56 C-12 54.68 -12 53.36 -12 52 C-11.34 52 -10.68 52 -10 52 C-8.711 53.898 -8.711 53.898 -7.375 56.375 C-6.706 57.593 -6.706 57.593 -6.023 58.836 C-5 61 -5 61 -5 63 C-0.321 61.428 -0.321 61.428 3 58 C1.583 53.098 -1.458 49.019 -4.25 44.812 C-8.311 38.622 -12.273 32.4 -16 26 C-15.01 25.67 -14.02 25.34 -13 25 C-10.812 27.438 -10.812 27.438 -9 30 C-6.019 26.613 -5.137 23.32 -4 19 C-3.662 18.218 -3.325 17.435 -2.977 16.629 C-1.921 13.788 -1.633 11.392 -1.438 8.375 C-1.23 5.291 -0.983 2.948 0 0 Z " fill="#132435" transform="translate(465,239)"/>
<path d="M0 0 C0.66 0 1.32 0 2 0 C3.157 1.585 3.157 1.585 4.426 3.805 C4.891 4.611 5.356 5.418 5.835 6.249 C6.323 7.116 6.81 7.982 7.312 8.875 C7.807 9.747 8.301 10.618 8.81 11.517 C9.781 13.239 10.749 14.965 11.711 16.692 C12.749 18.551 13.807 20.398 14.871 22.242 C15.554 23.484 15.554 23.484 16.25 24.75 C16.626 25.425 17.003 26.101 17.391 26.797 C19.323 33.783 15.281 40.002 12.062 45.938 C11.607 46.812 11.151 47.687 10.682 48.588 C8.148 53.339 8.148 53.339 7 55 C6.34 55 5.68 55 5 55 C3.123 50.532 2.504 46.101 1.938 41.312 C1.328 36.075 1.328 36.075 0 31 C-0.084 28.643 -0.107 26.284 -0.098 23.926 C-0.096 23.242 -0.095 22.558 -0.093 21.854 C-0.088 19.673 -0.075 17.493 -0.062 15.312 C-0.057 13.833 -0.053 12.353 -0.049 10.873 C-0.038 7.249 -0.021 3.624 0 0 Z " fill="#F4F5F6" transform="translate(500,359)"/>
<path d="M0 0 C0 2 0 4 0 6 C0.66 6.33 1.32 6.66 2 7 C1.01 7 0.02 7 -1 7 C-1.455 9.03 -1.897 11.063 -2.293 13.105 C-4.51 22.181 -8.536 30.143 -14.617 37.195 C-17.044 40.052 -19.293 42.997 -21.541 45.995 C-26.528 52.637 -31.656 59.131 -37.062 65.438 C-37.598 66.07 -38.134 66.703 -38.686 67.354 C-43.3 72.66 -43.3 72.66 -47 74 C-47.835 71.161 -48.277 69.613 -47.035 66.866 C-46.271 65.811 -46.271 65.811 -45.492 64.734 C-44.924 63.935 -44.356 63.136 -43.77 62.312 C-42.832 61.044 -42.832 61.044 -41.875 59.75 C-41.24 58.868 -40.605 57.987 -39.95 57.078 C-33.022 47.517 -25.873 38.101 -18.504 28.875 C-13.505 22.498 -9.618 15.924 -6.005 8.697 C-5.655 8.002 -5.306 7.306 -4.945 6.59 C-4.641 5.97 -4.337 5.35 -4.024 4.711 C-2.9 2.832 -1.602 1.482 0 0 Z " fill="#F0F1F3" transform="translate(303,339)"/>
<path d="M0 0 C0.33 0 0.66 0 1 0 C1.125 7.625 1.125 7.625 0 11 C0 12.176 0 13.351 0 14.562 C0 18 0 18 -1 20 C-0.34 20.33 0.32 20.66 1 21 C0.125 24.562 0.125 24.562 -1 28 C1.224 26.075 1.224 26.075 2 23 C3.844 23.211 3.844 23.211 6 24 C7.473 26.304 8.524 28.677 9.656 31.164 C10.321 32.073 10.321 32.073 11 33 C13.154 32.878 13.154 32.878 15 32 C15 33.32 15 34.64 15 36 C15.66 36 16.32 36 17 36 C17 35.01 17 34.02 17 33 C20.465 33.495 20.465 33.495 24 34 C24 34.33 24 34.66 24 35 C23.154 35.144 22.309 35.289 21.438 35.438 C16.205 37.816 13.976 42.227 11 47 C4.097 41.892 -1.567 34.726 -3 26 C-3.459 16.725 -2.943 8.828 0 0 Z " fill="#F3B117" transform="translate(468,232)"/>
<path d="M0 0 C0.33 0 0.66 0 1 0 C1.133 1.207 1.266 2.413 1.402 3.656 C1.581 5.271 1.759 6.885 1.938 8.5 C2.025 9.291 2.112 10.083 2.201 10.898 C2.288 11.685 2.375 12.471 2.465 13.281 C2.553 14.076 2.64 14.872 2.731 15.691 C2.976 17.791 3.26 19.882 3.551 21.977 C4.134 26.605 4.221 31.214 4.25 35.875 C4.271 36.728 4.291 37.582 4.312 38.461 C4.318 39.276 4.323 40.09 4.328 40.93 C4.342 42.032 4.342 42.032 4.356 43.156 C4.239 43.764 4.121 44.373 4 45 C3.01 45.66 2.02 46.32 1 47 C-3.262 40.732 -10 30.816 -10 23 C-8.68 22.67 -7.36 22.34 -6 22 C-5.67 24.97 -5.34 27.94 -5 31 C-5.093 29.298 -5.093 29.298 -5.188 27.562 C-5.126 26.387 -5.064 25.211 -5 24 C-4.01 23.67 -3.02 23.34 -2 23 C-0.868 18.679 -0.913 14.445 -1 10 C-1 8.137 -0.708 6.286 -0.5 4.438 C-0.407 3.611 -0.314 2.785 -0.219 1.934 C-0.147 1.296 -0.074 0.657 0 0 Z " fill="#F1F2F3" transform="translate(403,286)"/>
<path d="M0 0 C0.99 0.33 1.98 0.66 3 1 C3.323 3.561 3.437 5.889 3.432 8.457 C3.443 9.238 3.453 10.018 3.463 10.822 C3.494 13.414 3.503 16.006 3.512 18.598 C3.529 20.39 3.547 22.182 3.566 23.974 C3.614 28.701 3.643 33.427 3.67 38.154 C3.699 42.973 3.746 47.792 3.791 52.611 C3.877 62.074 3.944 71.537 4 81 C3.01 80.67 2.02 80.34 1 80 C0.476 77.843 0.476 77.843 0.27 74.93 C0.189 73.824 0.108 72.719 0.025 71.58 C-0.045 70.357 -0.115 69.135 -0.188 67.875 C-0.267 66.609 -0.347 65.343 -0.429 64.039 C-1.081 52.845 -1.184 41.648 -1.188 30.438 C-1.188 29.607 -1.189 28.777 -1.191 27.922 C-1.189 18.566 -1 9.313 0 0 Z " fill="#0C2037" transform="translate(423,509)"/>
<path d="M0 0 C2.864 0.245 4.505 0.52 6.598 2.547 C10.797 8.863 14.635 15.376 18.438 21.938 C18.982 22.874 19.527 23.81 20.088 24.774 C20.594 25.662 21.1 26.55 21.621 27.465 C22.079 28.265 22.537 29.066 23.01 29.89 C24 32 24 32 24 35 C22.297 36.703 20.317 36.717 18 37 C15.905 34.905 15.133 33.36 13.941 30.676 C13.555 29.811 13.169 28.947 12.771 28.057 C12.373 27.151 11.974 26.246 11.562 25.312 C11.167 24.426 10.772 23.54 10.365 22.627 C8.204 17.768 6.082 12.894 4 8 C4.023 8.782 4.046 9.565 4.07 10.371 C4.088 11.383 4.106 12.395 4.125 13.438 C4.148 14.447 4.171 15.456 4.195 16.496 C4.131 17.322 4.066 18.149 4 19 C3.34 19.33 2.68 19.66 2 20 C0.87 14.977 1.221 11.021 2 6 C2.66 6 3.32 6 4 6 C3.209 4 3.209 4 2 2 C1.01 1.67 0.02 1.34 -1 1 C-0.67 0.67 -0.34 0.34 0 0 Z " fill="#EEEFF1" transform="translate(488,270)"/>
<path d="M0 0 C2.911 2.506 4.171 5.18 5.707 8.672 C6.209 9.805 6.711 10.938 7.228 12.106 C7.751 13.308 8.274 14.511 8.812 15.75 C9.352 16.98 9.892 18.21 10.433 19.439 C21 43.566 21 43.566 21 47 C20.34 47 19.68 47 19 47 C18.67 47.66 18.34 48.32 18 49 C17.34 49 16.68 49 16 49 C16.33 47.02 16.66 45.04 17 43 C16.01 43 15.02 43 14 43 C14 42.01 14 41.02 14 40 C13.761 37.389 13.761 37.389 13 35 C12.01 34.67 11.02 34.34 10 34 C9.572 31.66 9.56 29.408 9.504 27.031 C9.338 26.361 9.171 25.691 9 25 C7.145 23.798 7.145 23.798 5 24 C3.844 25.967 3.844 25.967 3 28 C2.49 24.835 1.994 21.668 1.5 18.5 C1.357 17.613 1.214 16.726 1.066 15.812 C0.241 10.469 -0.152 5.406 0 0 Z " fill="#1B2B3E" transform="translate(491,277)"/>
<path d="M0 0 C3.735 0.498 5.812 0.875 9 3 C9.124 3.866 9.248 4.732 9.375 5.625 C9.581 6.409 9.788 7.192 10 8 C11.666 8.042 13.334 8.042 15 8 C16.468 11.362 15.771 14.251 15.062 17.75 C14.868 18.735 14.673 19.72 14.473 20.734 C14.317 21.482 14.161 22.23 14 23 C11.613 22.711 11.613 22.711 9 22 C7.12 18.499 6 15.992 6 12 C5.01 12 4.02 12 3 12 C3 11.34 3 10.68 3 10 C2.01 10 1.02 10 0 10 C0 6.7 0 3.4 0 0 Z " fill="#1D282A" transform="translate(322,191)"/>
<path d="M0 0 C1.98 0 3.96 0 6 0 C6.33 6.27 6.66 12.54 7 19 C8.32 18.67 9.64 18.34 11 18 C10.375 20.938 10.375 20.938 9 24 C5.879 25.086 3.985 25.32 0.831 24.295 C-1 23 -1 23 -1.47 20.877 C-1.455 20.02 -1.441 19.164 -1.426 18.281 C-1.417 17.349 -1.409 16.417 -1.4 15.457 C-1.371 14.481 -1.342 13.505 -1.312 12.5 C-1.303 11.524 -1.293 10.548 -1.283 9.543 C-1.169 2.337 -1.169 2.337 0 0 Z " fill="#1C2421" transform="translate(398,155)"/>
<path d="M0 0 C3.923 1.046 5.609 3.514 7.812 6.75 C9.386 9.7 10.704 12.732 12 15.812 C12.513 16.997 12.513 16.997 13.037 18.205 C13.976 20.381 14.897 22.564 15.812 24.75 C16.221 25.697 16.63 26.645 17.051 27.621 C17.812 29.75 17.812 29.75 17.812 32.75 C16.822 32.75 15.832 32.75 14.812 32.75 C14.812 32.09 14.812 31.43 14.812 30.75 C12.832 30.75 10.853 30.75 8.812 30.75 C9.803 30.42 10.793 30.09 11.812 29.75 C10.238 23.756 8.243 17.938 5.938 12.188 C5.466 10.99 4.994 9.792 4.508 8.559 C3.083 5.578 3.083 5.578 0.324 4.695 C-2.593 4.759 -3.42 5.204 -5.5 7.188 C-6.387 8.033 -7.274 8.879 -8.188 9.75 C-8.188 9.09 -8.188 8.43 -8.188 7.75 C-9.178 7.42 -10.168 7.09 -11.188 6.75 C-4.519 1.063 -4.519 1.063 0 0 Z " fill="#293B4A" transform="translate(376.1875,281.25)"/>
<path d="M0 0 C3.812 0.625 3.812 0.625 5.328 2.176 C6.942 4.601 8.376 7.091 9.812 9.625 C10.524 10.769 11.242 11.91 11.965 13.047 C17.812 22.289 17.812 22.289 17.812 24.625 C22.102 24.625 26.393 24.625 30.812 24.625 C30.812 24.955 30.812 25.285 30.812 25.625 C17.572 26.989 17.572 26.989 13.727 24.008 C12.187 21.618 10.999 19.209 9.812 16.625 C8.658 14.606 7.469 12.606 6.25 10.625 C5.712 9.697 5.175 8.769 4.621 7.812 C2.955 5.459 2.955 5.459 0.285 4.535 C-0.531 4.565 -1.347 4.594 -2.188 4.625 C-3.936 6.498 -3.936 6.498 -5.188 9.062 C-6.562 11.621 -6.562 11.621 -8.188 13.625 C-10.812 13.723 -10.812 13.723 -13.188 13.625 C-13.517 14.615 -13.848 15.605 -14.188 16.625 C-15.427 13.651 -16.488 10.772 -17.188 7.625 C-14.217 9.605 -14.217 9.605 -11.188 11.625 C-10.694 10.915 -10.2 10.204 -9.691 9.473 C-9.051 8.554 -8.41 7.634 -7.75 6.688 C-7.112 5.771 -6.474 4.854 -5.816 3.91 C-3.521 0.69 -3.521 0.69 0 0 Z " fill="#2B312D" transform="translate(490.1875,266.375)"/>
<path d="M0 0 C0.66 0 1.32 0 2 0 C3.289 1.898 3.289 1.898 4.625 4.375 C5.071 5.187 5.517 5.999 5.977 6.836 C7 9 7 9 7 11 C10.341 9.826 12.811 8.846 15 6 C15.165 5.299 15.33 4.598 15.5 3.875 C15.665 3.256 15.83 2.637 16 2 C16.99 1.67 17.98 1.34 19 1 C20 4 20 4 19.137 5.945 C14.295 13.228 8.286 19.143 1 24 C1 23.34 1 22.68 1 22 C0.01 21.67 -0.98 21.34 -2 21 C-0.067 18.975 1.632 17.579 4 16 C3.34 15.67 2.68 15.34 2 15 C2 12.667 2 10.333 2 8 C1.05 5.85 1.05 5.85 0 4 C0 2.68 0 1.36 0 0 Z " fill="#1A2E41" transform="translate(453,291)"/>
<path d="M0 0 C5.613 0.236 8.539 3.91 12.312 7.625 C13.641 8.906 14.97 10.186 16.301 11.465 C16.936 12.078 17.571 12.692 18.225 13.324 C20.981 15.927 23.901 18.32 26.875 20.668 C27.246 21.108 27.618 21.547 28 22 C27.67 22.99 27.34 23.98 27 25 C23.698 24.413 22.011 23.402 19.609 21.086 C18.986 20.493 18.362 19.9 17.719 19.288 C17.069 18.657 16.419 18.026 15.75 17.375 C14.411 16.094 13.071 14.814 11.73 13.535 C11.089 12.922 10.448 12.308 9.787 11.676 C7.039 9.098 4.157 6.693 1.223 4.332 C0 3 0 3 0 0 Z " fill="#E4AE2D" transform="translate(257,253)"/>
<path d="M0 0 C4.075 1.488 5.287 3.732 7.25 7.5 C7.771 8.48 8.292 9.459 8.828 10.469 C10 13 10 13 10 15 C8.68 14.67 7.36 14.34 6 14 C5.959 14.825 5.918 15.65 5.875 16.5 C5.442 17.738 5.442 17.738 5 19 C2 19.438 2 19.438 -1 19 C-3.338 14.325 -2.412 7.773 -1 2.875 C-0.67 1.926 -0.34 0.977 0 0 Z " fill="#182B3E" transform="translate(406,205)"/>
<path d="M0 0 C0.66 0.66 1.32 1.32 2 2 C1.34 2.66 0.68 3.32 0 4 C-0.205 5.915 -0.205 5.915 -0.062 8 C0.098 11.803 0.098 11.803 -1 14 C-2.32 14 -3.64 14 -5 14 C-5.33 14.66 -5.66 15.32 -6 16 C-6.33 16.66 -6.66 17.32 -7 18 C-8.32 18 -9.64 18 -11 18 C-11.33 18.66 -11.66 19.32 -12 20 C-12.66 19.34 -13.32 18.68 -14 18 C-13.136 13.682 -12.302 10.906 -9 8 C-8.567 7.175 -8.134 6.35 -7.688 5.5 C-5.55 2.334 -3.561 1.288 0 0 Z " fill="#FBFBFB" transform="translate(368,297)"/>
<path d="M0 0 C1.32 0 2.64 0 4 0 C4.75 2 4.75 2 5 4 C6.98 3.34 8.96 2.68 11 2 C11 3.65 11 5.3 11 7 C11.66 7 12.32 7 13 7 C13.125 9.875 13.125 9.875 13 13 C12.34 13.66 11.68 14.32 11 15 C19.638 15.444 19.638 15.444 28.062 13.938 C31.136 12.957 32.046 13.092 35 14 C17.761 20.958 17.761 20.958 10 18 C5.875 13.845 0 6.064 0 0 Z " fill="#F2AE1A" transform="translate(498,273)"/>
<path d="M0 0 C2.646 -0.054 5.291 -0.094 7.938 -0.125 C8.692 -0.142 9.447 -0.159 10.225 -0.176 C12.151 -0.193 14.077 -0.104 16 0 C16.33 0.66 16.66 1.32 17 2 C17.66 2.33 18.32 2.66 19 3 C17.68 3.33 16.36 3.66 15 4 C14.67 3.01 14.34 2.02 14 1 C12.68 1 11.36 1 10 1 C10.088 2.897 10.196 4.792 10.312 6.688 C10.4 8.271 10.4 8.271 10.488 9.887 C11.09 13.55 12.347 16.347 15 19 C15.041 21 15.043 23 15 25 C11.371 20.753 8.608 16.186 5.812 11.375 C5.137 10.23 5.137 10.23 4.447 9.062 C2.678 6.039 1.112 3.336 0 0 Z " fill="#14263C" transform="translate(506,292)"/>
<path d="M0 0 C0.99 0 1.98 0 3 0 C3 4.62 3 9.24 3 14 C3.99 13.67 4.98 13.34 6 13 C6 13.66 6 14.32 6 15 C3.953 16.367 3.953 16.367 1.25 17.875 C-1.649 19.494 -3.876 20.872 -6.203 23.258 C-6.796 23.833 -7.389 24.408 -8 25 C-8.66 24.67 -9.32 24.34 -10 24 C-9.697 23.441 -9.394 22.881 -9.082 22.305 C-5.749 15.926 -3.384 9.55 -1.211 2.711 C-0.811 1.816 -0.412 0.922 0 0 Z " fill="#1D2F42" transform="translate(302,346)"/>
<path d="M0 0 C2.465 0.102 2.465 0.102 5 1 C6.441 2.898 6.441 2.898 7.562 5.375 C7.97 6.272 8.377 7.169 8.797 8.094 C14 20.662 14 20.662 14 26 C12.68 26 11.36 26 10 26 C8.895 23.347 8.096 20.946 7.375 18.188 C5.809 12.34 5.809 12.34 3 7 C3.66 7 4.32 7 5 7 C5 6.01 5 5.02 5 4 C1.069 4.575 1.069 4.575 -2 7 C-2.66 7 -3.32 7 -4 7 C-5.349 7.635 -6.685 8.298 -8 9 C-7.043 7.874 -6.084 6.749 -5.125 5.625 C-4.591 4.999 -4.058 4.372 -3.508 3.727 C-2.386 2.442 -1.206 1.206 0 0 Z " fill="#E7EBEE" transform="translate(374,285)"/>
<path d="M0 0 C0 0.66 0 1.32 0 2 C-1 3 -2 4 -3 5 C-3 5.66 -3 6.32 -3 7 C-3.825 7.083 -4.65 7.165 -5.5 7.25 C-6.738 7.621 -6.738 7.621 -8 8 C-8.417 11.042 -8.417 11.042 -8 14 C-9.32 14 -10.64 14 -12 14 C-13.382 15.626 -14.719 17.293 -16 19 C-16.66 19 -17.32 19 -18 19 C-18 19.66 -18 20.32 -18 21 C-21 22.125 -21 22.125 -24 23 C-20.916 14.335 -10.316 0 0 0 Z " fill="#EEAF1F" transform="translate(493,209)"/>
<path d="M0 0 C3.657 2.438 3.927 3.892 5.25 8 C5.606 9.072 5.962 10.145 6.328 11.25 C7 14 7 14 6 16 C5.67 14.68 5.34 13.36 5 12 C4.01 12.33 3.02 12.66 2 13 C2 13.99 2 14.98 2 16 C1.01 16 0.02 16 -1 16 C-1 15.34 -1 14.68 -1 14 C-2.65 14.33 -4.3 14.66 -6 15 C-7 12 -7 12 -5.566 9.082 C-4.905 8.003 -4.244 6.924 -3.562 5.812 C-2.904 4.726 -2.245 3.639 -1.566 2.52 C-1.049 1.688 -0.533 0.857 0 0 Z " fill="#1D2F42" transform="translate(377,293)"/>
<path d="M0 0 C0.99 0.33 1.98 0.66 3 1 C2.428 6.192 -0.098 10.31 -2.562 14.812 C-2.987 15.601 -3.412 16.389 -3.85 17.201 C-4.894 19.137 -5.944 21.07 -7 23 C-7.99 22.67 -8.98 22.34 -10 22 C-9.467 16.642 -7.574 12.8 -5 8.188 C-4.447 7.168 -4.447 7.168 -3.883 6.127 C-1.18 1.18 -1.18 1.18 0 0 Z " fill="#DEAA2B" transform="translate(473,173)"/>
<path d="M0 0 C0 2 0 4 0 6 C0.66 6.33 1.32 6.66 2 7 C1.01 7 0.02 7 -1 7 C-1.711 8.792 -1.711 8.792 -2 11.062 C-2.812 15.413 -4.127 18.998 -6 23 C-6.99 22.34 -7.98 21.68 -9 21 C-9.99 20.67 -10.98 20.34 -12 20 C-10.572 17.224 -9.131 14.455 -7.688 11.688 C-7.283 10.902 -6.879 10.116 -6.463 9.307 C-6.067 8.549 -5.67 7.792 -5.262 7.012 C-4.9 6.315 -4.539 5.619 -4.167 4.901 C-2.974 2.957 -1.673 1.539 0 0 Z " fill="#E8EAEC" transform="translate(303,339)"/>
<path d="M0 0 C0.66 0.33 1.32 0.66 2 1 C2.81 3.755 3.501 6.453 4.125 9.25 C4.307 10.014 4.489 10.779 4.676 11.566 C5.566 15.443 6.24 18.994 6 23 C1.939 21.646 1.397 19.737 -0.688 16.062 C-1.31 14.981 -1.933 13.899 -2.574 12.785 C-4 10 -4 10 -4 8 C-3.01 8 -2.02 8 -1 8 C-1.021 7.051 -1.041 6.103 -1.062 5.125 C-1 2 -1 2 0 0 Z " fill="#E9ECED" transform="translate(498,329)"/>
<path d="M0 0 C3.347 0.958 6.675 1.968 10 3 C11.027 3.313 12.055 3.626 13.113 3.949 C14.107 4.275 15.101 4.601 16.125 4.938 C17.056 5.235 17.986 5.533 18.945 5.84 C19.623 6.223 20.301 6.606 21 7 C21 8.32 21 9.64 21 11 C15.862 10.36 11.412 8.803 6.625 6.938 C5.889 6.656 5.153 6.374 4.395 6.084 C2.594 5.394 0.797 4.698 -1 4 C-0.67 2.68 -0.34 1.36 0 0 Z " fill="#E1B033" transform="translate(226,324)"/>
<path d="M0 0 C0.66 0.66 1.32 1.32 2 2 C1.01 2.33 0.02 2.66 -1 3 C-1.495 2.505 -1.495 2.505 -2 2 C-4.013 1.604 -6.036 1.257 -8.062 0.938 C-9.167 0.761 -10.272 0.584 -11.41 0.402 C-12.265 0.27 -13.119 0.137 -14 0 C-14 -0.33 -14 -0.66 -14 -1 C-19.94 -1 -25.88 -1 -32 -1 C-32 1.64 -32 4.28 -32 7 C-32.66 7 -33.32 7 -34 7 C-34 5.68 -34 4.36 -34 3 C-36.64 2.67 -39.28 2.34 -42 2 C-32.243 -5.985 -11.012 -5.359 0 0 Z " fill="#EDAF20" transform="translate(535,207)"/>
<path d="M0 0 C0.33 0 0.66 0 1 0 C1.33 21.12 1.66 42.24 2 64 C1.01 63.67 0.02 63.34 -1 63 C-1.392 60.41 -1.604 58.039 -1.688 55.438 C-1.739 54.371 -1.739 54.371 -1.791 53.283 C-1.874 51.523 -1.939 49.761 -2 48 C-1.34 48 -0.68 48 0 48 C0 32.16 0 16.32 0 0 Z " fill="#415161" transform="translate(425,526)"/>
<path d="M0 0 C0.66 0 1.32 0 2 0 C2.969 3.261 3.094 4.717 2 8 C2.99 8 3.98 8 5 8 C5 8.66 5 9.32 5 10 C4.34 10 3.68 10 3 10 C3.165 10.99 3.33 11.98 3.5 13 C4.085 17.027 4.071 20.935 4 25 C3.67 25 3.34 25 3 25 C2.67 26.98 2.34 28.96 2 31 C1.34 31 0.68 31 0 31 C0 20.77 0 10.54 0 0 Z M5 11 C5.99 11.495 5.99 11.495 7 12 C7 12.66 7 13.32 7 14 C6.34 14 5.68 14 5 14 C5 13.01 5 12.02 5 11 Z " fill="#D9DCDF" transform="translate(500,359)"/>
<path d="M0 0 C-0.176 1.836 -0.176 1.836 -1 4 C-3.293 5.414 -3.293 5.414 -6.188 6.625 C-7.68 7.253 -7.68 7.253 -9.203 7.895 C-13.72 9.68 -17.11 11 -22 11 C-21.785 9.129 -21.785 9.129 -21 7 C-18.996 5.84 -18.996 5.84 -16.438 4.938 C-15.538 4.611 -14.638 4.285 -13.711 3.949 C-12.816 3.636 -11.922 3.323 -11 3 C-9.52 2.418 -8.041 1.835 -6.562 1.25 C-3 0 -3 0 0 0 Z " fill="#E3B02C" transform="translate(579,311)"/>
<path d="M0 0 C1.32 0 2.64 0 4 0 C3.455 4.019 1.445 5.947 -1.312 8.812 C-4.933 12.697 -7.555 16.314 -10 21 C-10.33 21 -10.66 21 -11 21 C-10.67 18.69 -10.34 16.38 -10 14 C-11.32 13.67 -12.64 13.34 -14 13 C-13.492 12.732 -12.984 12.464 -12.461 12.188 C-7.449 9.334 -4.493 6.461 -1.422 1.574 C-0.953 1.055 -0.483 0.535 0 0 Z " fill="#1A2C3D" transform="translate(364,289)"/>
<path d="M0 0 C0.33 0 0.66 0 1 0 C1.399 4.522 -0.004 7.008 -2 11 C-2.714 14.738 -2.714 14.738 -3 18 C-6.3 18 -9.6 18 -13 18 C-8.956 11.787 -4.835 5.635 0 0 Z " fill="#182A3F" transform="translate(337,376)"/>
<path d="M0 0 C2.289 0.078 2.289 0.078 5 1 C6.424 3.315 7.401 5.258 8.375 7.75 C8.647 8.371 8.919 8.993 9.199 9.633 C10.776 13.466 11.288 16.03 10 20 C7 19 7 19 5.176 15.508 C4.544 14.052 3.923 12.59 3.312 11.125 C2.992 10.392 2.672 9.658 2.342 8.902 C0 3.42 0 3.42 0 0 Z " fill="#DFAA30" transform="translate(324,194)"/>
<path d="M0 0 C0.66 0.33 1.32 0.66 2 1 C2.23 2.996 2.23 2.996 2.188 5.438 C2.181 6.241 2.175 7.044 2.168 7.871 C2 10 2 10 1 12 C2.158 12.061 3.315 12.121 4.508 12.184 C6.047 12.268 7.586 12.353 9.125 12.438 C10.266 12.496 10.266 12.496 11.43 12.557 C15.685 12.795 19.804 13.202 24 14 C24 14.33 24 14.66 24 15 C19.249 15.905 14.586 16.15 9.75 16.25 C8.549 16.276 7.347 16.302 6.109 16.328 C3 16 3 16 1.121 14.59 C-1.739 10.534 -1.156 5.764 -1 1 C-0.67 0.67 -0.34 0.34 0 0 Z " fill="#EAECEE" transform="translate(462,490)"/>
<path d="M0 0 C1.646 -0.027 3.292 -0.046 4.938 -0.062 C5.854 -0.074 6.771 -0.086 7.715 -0.098 C10 0 10 0 11 1 C12.647 0.942 14.293 0.854 15.938 0.75 C18.672 0.719 18.672 0.719 21 1 C23.003 3.671 23.104 5.042 22.75 8.312 C22.502 8.869 22.255 9.426 22 10 C21.34 10 20.68 10 20 10 C19.546 9.537 19.093 9.075 18.626 8.598 C16.788 6.792 15.42 6.23 12.988 5.43 C12.231 5.173 11.474 4.917 10.693 4.652 C9.908 4.396 9.122 4.139 8.312 3.875 C5.526 2.951 2.762 1.997 0 1 C0 0.67 0 0.34 0 0 Z " fill="#1B272D" transform="translate(228,324)"/>
<path d="M0 0 C1.32 0 2.64 0 4 0 C4 6.93 4 13.86 4 21 C2.68 21 1.36 21 0 21 C0 14.07 0 7.14 0 0 Z " fill="#E3B02F" transform="translate(398,156)"/>
<path d="M0 0 C3.875 0.5 3.875 0.5 7 2 C-0.284 10.686 -0.284 10.686 -4 14 C-4.99 14 -5.98 14 -7 14 C-6.742 8.845 -4.872 5.419 -1.766 1.438 C-0.892 0.726 -0.892 0.726 0 0 Z " fill="#E6EAED" transform="translate(242,386)"/>
<path d="M0 0 C0.33 0 0.66 0 1 0 C1.822 5.106 2.24 10.08 2.312 15.25 C2.342 15.956 2.371 16.663 2.4 17.391 C2.439 20.509 2.409 22.485 0.434 24.973 C-2.901 26.38 -5.645 26.288 -9.25 26.188 C-10.513 26.16 -11.777 26.133 -13.078 26.105 C-14.042 26.071 -15.007 26.036 -16 26 C-16 25.34 -16 24.68 -16 24 C-11.05 23.67 -6.1 23.34 -1 23 C-1.021 21.268 -1.041 19.535 -1.062 17.75 C-1.104 14.265 -0.88 11.356 0 8 C0.065 6.585 0.086 5.167 0.062 3.75 C0.042 2.513 0.021 1.275 0 0 Z " fill="#E2E5E8" transform="translate(332,574)"/>
<path d="M0 0 C1.5 1.375 1.5 1.375 3 3 C3 3.66 3 4.32 3 5 C3.66 5 4.32 5 5 5 C5.875 6.75 5.875 6.75 6 9 C4.375 11.375 4.375 11.375 2 13 C-0.625 12.625 -0.625 12.625 -3 11 C-4.455 7.958 -5.154 5.978 -4.625 2.625 C-4.419 2.089 -4.212 1.553 -4 1 C-4 1.99 -4 2.98 -4 4 C-2.68 2.68 -1.36 1.36 0 0 Z " fill="#FDFCFC" transform="translate(522,325)"/>
<path d="M0 0 C0.66 0 1.32 0 2 0 C2.135 2.46 2.234 4.913 2.312 7.375 C2.375 8.423 2.375 8.423 2.439 9.492 C2.488 11.523 2.488 11.523 2 15 C-0.52 16.289 -0.52 16.289 -3 17 C-3 17.99 -3 18.98 -3 20 C-3.99 20 -4.98 20 -6 20 C-4.655 13.164 -3.022 6.315 0 0 Z " fill="#2D3E4E" transform="translate(303,530)"/>
<path d="M0 0 C0.66 0.33 1.32 0.66 2 1 C2.469 4.118 2.324 7.288 2.312 10.438 C2.329 11.322 2.345 12.207 2.361 13.119 C2.362 13.965 2.363 14.812 2.363 15.684 C2.368 16.852 2.368 16.852 2.372 18.045 C2.249 18.69 2.127 19.335 2 20 C1.01 20.66 0.02 21.32 -1 22 C-5 16.375 -5 16.375 -5 13 C-3.68 13 -2.36 13 -1 13 C-0.67 8.71 -0.34 4.42 0 0 Z " fill="#E8EBED" transform="translate(405,311)"/>
<path d="M0 0 C0.66 0 1.32 0 2 0 C3.145 1.437 3.145 1.437 4.383 3.43 C4.828 4.143 5.272 4.855 5.73 5.59 C6.191 6.344 6.651 7.098 7.125 7.875 C7.593 8.621 8.061 9.368 8.543 10.137 C12 15.73 12 15.73 12 18 C16.29 18 20.58 18 25 18 C25 18.33 25 18.66 25 19 C11.708 20.37 11.708 20.37 7.809 17.242 C6.283 14.892 5.122 12.566 4 10 C3.221 8.701 2.43 7.408 1.625 6.125 C0 3 0 3 0 0 Z " fill="#222922" transform="translate(496,273)"/>
<path d="M0 0 C2.355 0.152 2.355 0.152 5 1 C6.801 3.066 6.801 3.066 8.312 5.562 C8.824 6.389 9.336 7.215 9.863 8.066 C10.238 8.704 10.614 9.343 11 10 C10.01 10.33 9.02 10.66 8 11 C7.34 11.66 6.68 12.32 6 13 C5.34 11.35 4.68 9.7 4 8 C4.023 8.782 4.046 9.565 4.07 10.371 C4.088 11.383 4.106 12.395 4.125 13.438 C4.148 14.447 4.171 15.456 4.195 16.496 C4.131 17.322 4.066 18.149 4 19 C3.34 19.33 2.68 19.66 2 20 C0.87 14.977 1.221 11.021 2 6 C2.66 6 3.32 6 4 6 C3.209 4 3.209 4 2 2 C1.01 1.67 0.02 1.34 -1 1 C-0.67 0.67 -0.34 0.34 0 0 Z " fill="#D7DBDE" transform="translate(488,270)"/>
<path d="M0 0 C0.33 0 0.66 0 1 0 C1.125 7.625 1.125 7.625 0 11 C0 12.176 0 13.351 0 14.562 C0 18 0 18 -1 20 C-0.34 20.33 0.32 20.66 1 21 C0.646 24.751 0.016 28.372 -1 32 C-5.068 21.506 -3.466 10.399 0 0 Z " fill="#E9AD24" transform="translate(468,232)"/>
<path d="M0 0 C0.66 0 1.32 0 2 0 C2.75 2.375 2.75 2.375 3 5 C2.34 5.66 1.68 6.32 1 7 C9.638 7.444 9.638 7.444 18.062 5.938 C21.136 4.957 22.046 5.092 25 6 C17.089 9.193 8.567 11.984 0 10 C-1.863 7.601 -3 6.074 -3 3 C-2.34 3 -1.68 3 -1 3 C-0.67 2.01 -0.34 1.02 0 0 Z " fill="#DCA524" transform="translate(508,281)"/>
<path d="M0 0 C1.936 2.4 3.855 4.809 5.719 7.266 C6.327 8.065 6.936 8.864 7.562 9.688 C8.141 10.454 8.72 11.221 9.316 12.012 C11.027 14.218 11.027 14.218 14 16 C13.01 16 12.02 16 11 16 C10.67 16.66 10.34 17.32 10 18 C9.66 17.01 9.66 17.01 9.312 16 C8.879 15.34 8.446 14.68 8 14 C5.458 13.833 5.458 13.833 3 14 C1.646 11.291 1.935 8.991 2 6 C0.68 6 -0.64 6 -2 6 C-1.34 4.02 -0.68 2.04 0 0 Z " fill="#1B2B3F" transform="translate(554,389)"/>
<path d="M0 0 C0.18 1.812 0.18 1.812 -0.125 4 C-0.21 4.722 -0.295 5.444 -0.383 6.188 C-0.586 6.786 -0.79 7.384 -1 8 C-1.99 8.33 -2.98 8.66 -4 9 C-3.67 6.69 -3.34 4.38 -3 2 C-3.66 2 -4.32 2 -5 2 C-6.28 4.317 -7.442 6.607 -8.562 9 C-9.678 11.353 -10.819 13.679 -12 16 C-12.33 16 -12.66 16 -13 16 C-13.154 8 -13.154 8 -12 5 C-11.34 4.67 -10.68 4.34 -10 4 C-10 3.01 -10 2.02 -10 1 C-3.903 -1.301 -3.903 -1.301 0 0 Z " fill="#212A25" transform="translate(478,172)"/>
</svg>
